<svg id="Layer_1" data-name="Layer 1" xmlns="http://www.w3.org/2000/svg" xmlns:xlink="http://www.w3.org/1999/xlink" viewBox="0 0 1500 1500"><defs><style>.cls-1{stroke:#000;stroke-miterlimit:10;}.cls-2{fill:url(#linear-gradient);}.cls-3{fill:url(#linear-gradient-2);}.cls-4{fill:url(#linear-gradient-3);}.cls-5{fill:url(#linear-gradient-4);}.cls-6{fill:url(#linear-gradient-5);}.cls-7{fill:url(#linear-gradient-6);}</style><linearGradient id="linear-gradient" x1="287.07" y1="1467.4" x2="1218.81" y2="1467.4" gradientUnits="userSpaceOnUse"><stop offset="0" stop-color="#f57170"/><stop offset="0.05" stop-color="#f67175"/><stop offset="0.69" stop-color="#fc73ac"/><stop offset="1" stop-color="#ff74c2"/></linearGradient><linearGradient id="linear-gradient-2" x1="287.07" y1="1181.69" x2="1218.81" y2="1181.69" xlink:href="#linear-gradient"/><linearGradient id="linear-gradient-3" x1="287.07" y1="895.97" x2="1218.81" y2="895.97" xlink:href="#linear-gradient"/><linearGradient id="linear-gradient-4" x1="287.07" y1="610.26" x2="1218.81" y2="610.26" xlink:href="#linear-gradient"/><linearGradient id="linear-gradient-5" x1="287.07" y1="324.54" x2="1218.81" y2="324.54" xlink:href="#linear-gradient"/><linearGradient id="linear-gradient-6" x1="287.07" y1="38.83" x2="1218.81" y2="38.83" xlink:href="#linear-gradient"/></defs><rect class="cls-1" x="1.5" y="-2.5" width="1501" height="1514"/><path class="cls-2" d="M312.34,1526.17a15,15,0,0,1-11.16,2.13,17.94,17.94,0,0,1-10-5.58,15.56,15.56,0,0,1-4.1-11q0-9.18,8.21-14.44l110.6-66.3v14.11l-110.6-65.63q-8.2-4.93-8.21-14.77,0-9.53,8.21-14t17.06.16l121.11,72.86q8.85,6.24,8.86,14.77,0,9.53-8.86,15.1Zm252.71,27.9q-26.58,0-46.93-11.65a84.44,84.44,0,0,1-32-32.17q-11.65-20.51-11.65-47.09,0-26.91,11.65-47.43a84.48,84.48,0,0,1,32-32.16q20.34-11.65,46.93-11.65,26.25,0,46.6,11.65a84.51,84.51,0,0,1,32,32.16q11.64,20.52,11.64,47.43,0,26.58-11.48,47.09A83.27,83.27,0,0,1,612,1542.42Q591.64,1554.08,565.05,1554.07Zm0-29.54q17.07,0,30.2-7.88A55.19,55.19,0,0,0,615.76,1495q7.38-13.79,7.38-31.83t-7.38-32a55,55,0,0,0-20.51-21.83q-13.14-7.87-30.2-7.88t-30.19,7.88a56,56,0,0,0-20.68,21.83q-7.54,14-7.55,32t7.55,31.83a56.25,56.25,0,0,0,20.68,21.66Q548,1524.54,565.05,1524.53Zm113.23,61.7a16,16,0,0,1-12-4.92,16.44,16.44,0,0,1-4.76-11.82,16.28,16.28,0,0,1,16.74-16.74H832.2a16.72,16.72,0,0,1,11.49,28.56,15.76,15.76,0,0,1-11.49,4.92Zm262.22-32.16q-26.58,0-46.93-11.65a84.44,84.44,0,0,1-32-32.17q-11.66-20.51-11.65-47.09,0-26.91,11.65-47.43a84.48,84.48,0,0,1,32-32.16q20.35-11.65,46.93-11.65,26.26,0,46.61,11.65a84.55,84.55,0,0,1,32,32.16q11.64,20.52,11.65,47.43,0,26.58-11.49,47.09a83.32,83.32,0,0,1-31.83,32.17Q967.09,1554.08,940.5,1554.07Zm0-29.54q17.07,0,30.2-7.88A55.12,55.12,0,0,0,991.21,1495q7.38-13.79,7.39-31.83t-7.39-32a54.92,54.92,0,0,0-20.51-21.83q-13.12-7.87-30.2-7.88t-30.19,7.88a56,56,0,0,0-20.68,21.83q-7.54,14-7.55,32t7.55,31.83a56.25,56.25,0,0,0,20.68,21.66Q923.44,1524.54,940.5,1524.53Zm253,1.64-121.11-72.53q-8.87-5.58-8.86-15.1,0-8.54,8.86-14.77l121.11-72.86q8.85-4.59,17.06-.16t8.21,14q0,9.84-8.21,14.77L1100,1445.1V1431l110.6,66.3q8.2,5.25,8.21,14.44a15.53,15.53,0,0,1-4.11,11,17.91,17.91,0,0,1-10,5.58A15,15,0,0,1,1193.54,1526.17Z"/><path class="cls-3" d="M312.34,1240.46a15,15,0,0,1-11.16,2.13,18,18,0,0,1-10-5.58,15.59,15.59,0,0,1-4.1-11q0-9.18,8.21-14.44l110.6-66.29v14.11l-110.6-65.64q-8.2-4.92-8.21-14.77,0-9.51,8.21-14t17.06.17l121.11,72.86q8.85,6.24,8.86,14.77,0,9.53-8.86,15.09Zm252.71,27.89q-26.58,0-46.93-11.65a84.34,84.34,0,0,1-32-32.16q-11.65-20.51-11.65-47.1,0-26.89,11.65-47.42a84.44,84.44,0,0,1,32-32.17q20.34-11.64,46.93-11.65,26.25,0,46.6,11.65a84.46,84.46,0,0,1,32,32.17q11.64,20.51,11.64,47.42,0,26.6-11.48,47.1A83.18,83.18,0,0,1,612,1256.7Q591.64,1268.36,565.05,1268.35Zm0-29.54q17.07,0,30.2-7.87a55.19,55.19,0,0,0,20.51-21.66q7.38-13.79,7.38-31.84t-7.38-32a54.9,54.9,0,0,0-20.51-21.82q-13.14-7.87-30.2-7.88t-30.19,7.88a55.94,55.94,0,0,0-20.68,21.82q-7.54,14-7.55,32t7.55,31.84a56.25,56.25,0,0,0,20.68,21.66Q548,1238.82,565.05,1238.81Zm113.23,61.7a15.93,15.93,0,0,1-12-4.92,17.24,17.24,0,0,1,0-23.79,16.22,16.22,0,0,1,12-4.76H832.2a16.71,16.71,0,0,1,11.49,28.55,15.72,15.72,0,0,1-11.49,4.92Zm262.22-32.16q-26.58,0-46.93-11.65a84.34,84.34,0,0,1-32-32.16q-11.66-20.51-11.65-47.1,0-26.89,11.65-47.42a84.44,84.44,0,0,1,32-32.17q20.35-11.64,46.93-11.65,26.26,0,46.61,11.65a84.51,84.51,0,0,1,32,32.17q11.64,20.51,11.65,47.42,0,26.6-11.49,47.1a83.22,83.22,0,0,1-31.83,32.16Q967.09,1268.36,940.5,1268.35Zm0-29.54q17.07,0,30.2-7.87a55.12,55.12,0,0,0,20.51-21.66q7.38-13.79,7.39-31.84t-7.39-32a54.83,54.83,0,0,0-20.51-21.82q-13.12-7.87-30.2-7.88t-30.19,7.88a55.94,55.94,0,0,0-20.68,21.82q-7.54,14-7.55,32t7.55,31.84a56.25,56.25,0,0,0,20.68,21.66Q923.44,1238.82,940.5,1238.81Zm253,1.65-121.11-72.54q-8.87-5.57-8.86-15.09,0-8.53,8.86-14.77l121.11-72.86q8.85-4.59,17.06-.17t8.21,14q0,9.86-8.21,14.77L1100,1159.39v-14.11l110.6,66.29q8.2,5.27,8.21,14.44a15.55,15.55,0,0,1-4.11,11,18,18,0,0,1-10,5.58A15,15,0,0,1,1193.54,1240.46Z"/><path class="cls-4" d="M312.34,954.74a15,15,0,0,1-11.16,2.13,18,18,0,0,1-10-5.57,15.61,15.61,0,0,1-4.1-11q0-9.18,8.21-14.44l110.6-66.3v14.12L295.28,808q-8.2-4.93-8.21-14.77,0-9.51,8.21-13.95t17.06.16l121.11,72.86q8.85,6.24,8.86,14.77,0,9.52-8.86,15.1Zm252.71,27.9q-26.58,0-46.93-11.65a84.44,84.44,0,0,1-32-32.17q-11.65-20.51-11.65-47.09,0-26.91,11.65-47.42a84.44,84.44,0,0,1,32-32.17q20.34-11.64,46.93-11.65,26.25,0,46.6,11.65a84.46,84.46,0,0,1,32,32.17q11.64,20.51,11.64,47.42,0,26.58-11.48,47.09A83.27,83.27,0,0,1,612,971Q591.64,982.65,565.05,982.64Zm0-29.54q17.07,0,30.2-7.88a55.19,55.19,0,0,0,20.51-21.66q7.38-13.78,7.38-31.83t-7.38-32a55,55,0,0,0-20.51-21.83Q582.11,830,565.05,830t-30.19,7.87a56,56,0,0,0-20.68,21.83q-7.54,13.95-7.55,32t7.55,31.83a56.25,56.25,0,0,0,20.68,21.66Q548,953.11,565.05,953.1Zm113.23,61.7a16,16,0,0,1-12-4.92,16.65,16.65,0,0,1,12-28.55H832.2a16.71,16.71,0,0,1,11.49,28.55,15.76,15.76,0,0,1-11.49,4.92ZM940.5,982.64q-26.58,0-46.93-11.65a84.44,84.44,0,0,1-32-32.17q-11.66-20.51-11.65-47.09,0-26.91,11.65-47.42a84.44,84.44,0,0,1,32-32.17q20.35-11.64,46.93-11.65,26.26,0,46.61,11.65a84.51,84.51,0,0,1,32,32.17q11.64,20.51,11.65,47.42,0,26.58-11.49,47.09A83.32,83.32,0,0,1,987.44,971Q967.09,982.65,940.5,982.64Zm0-29.54q17.07,0,30.2-7.88a55.12,55.12,0,0,0,20.51-21.66q7.38-13.78,7.39-31.83t-7.39-32A54.92,54.92,0,0,0,970.7,837.9Q957.58,830,940.5,830t-30.19,7.87a56,56,0,0,0-20.68,21.83q-7.54,13.95-7.55,32t7.55,31.83a56.25,56.25,0,0,0,20.68,21.66Q923.44,953.11,940.5,953.1Zm253,1.64-121.11-72.53q-8.87-5.58-8.86-15.1,0-8.52,8.86-14.77l121.11-72.86q8.85-4.58,17.06-.16t8.21,13.95q0,9.84-8.21,14.77L1100,873.68V859.56l110.6,66.3q8.2,5.25,8.21,14.44a15.57,15.57,0,0,1-4.11,11,18,18,0,0,1-10,5.57A15,15,0,0,1,1193.54,954.74Z"/><path class="cls-5" d="M312.34,669a15,15,0,0,1-11.16,2.13,18,18,0,0,1-10-5.58,15.56,15.56,0,0,1-4.1-11q0-9.18,8.21-14.44l110.6-66.3V588l-110.6-65.63q-8.2-4.94-8.21-14.77,0-9.53,8.21-14t17.06.17l121.11,72.86q8.85,6.24,8.86,14.77,0,9.52-8.86,15.1Zm252.71,27.89q-26.58,0-46.93-11.65a84.34,84.34,0,0,1-32-32.16q-11.65-20.5-11.65-47.1,0-26.89,11.65-47.42a84.41,84.41,0,0,1,32-32.16q20.34-11.65,46.93-11.65,26.25,0,46.6,11.65a84.44,84.44,0,0,1,32,32.16Q655.3,579.11,655.3,606q0,26.6-11.48,47.1A83.18,83.18,0,0,1,612,685.27Q591.64,696.93,565.05,696.92Zm0-29.54q17.07,0,30.2-7.87a55.19,55.19,0,0,0,20.51-21.66q7.38-13.79,7.38-31.84t-7.38-32a54.92,54.92,0,0,0-20.51-21.83q-13.14-7.87-30.2-7.88t-30.19,7.88A56,56,0,0,0,514.18,574q-7.54,14-7.55,32t7.55,31.84a56.25,56.25,0,0,0,20.68,21.66Q548,667.39,565.05,667.38Zm113.23,61.71a15.94,15.94,0,0,1-12-4.93,16.66,16.66,0,0,1,12-28.55H832.2a16.71,16.71,0,0,1,11.49,28.55,15.73,15.73,0,0,1-11.49,4.93ZM940.5,696.92q-26.58,0-46.93-11.65a84.34,84.34,0,0,1-32-32.16q-11.66-20.5-11.65-47.1,0-26.89,11.65-47.42a84.41,84.41,0,0,1,32-32.16q20.35-11.65,46.93-11.65,26.26,0,46.61,11.65a84.48,84.48,0,0,1,32,32.16q11.64,20.52,11.65,47.42,0,26.6-11.49,47.1a83.22,83.22,0,0,1-31.83,32.16Q967.09,696.93,940.5,696.92Zm0-29.54q17.07,0,30.2-7.87a55.12,55.12,0,0,0,20.51-21.66q7.38-13.79,7.39-31.84t-7.39-32a54.86,54.86,0,0,0-20.51-21.83q-13.12-7.87-30.2-7.88t-30.19,7.88A56,56,0,0,0,889.63,574q-7.54,14-7.55,32t7.55,31.84a56.25,56.25,0,0,0,20.68,21.66Q923.44,667.39,940.5,667.38Zm253,1.65L1072.43,596.5q-8.87-5.58-8.86-15.1,0-8.53,8.86-14.77l121.11-72.86q8.85-4.59,17.06-.17t8.21,14q0,9.84-8.21,14.77L1100,588V573.85l110.6,66.3q8.2,5.25,8.21,14.44a15.53,15.53,0,0,1-4.11,11,18,18,0,0,1-10,5.58A15,15,0,0,1,1193.54,669Z"/><path class="cls-6" d="M312.34,383.31a15,15,0,0,1-11.16,2.13,18,18,0,0,1-10-5.57,15.61,15.61,0,0,1-4.1-11q0-9.18,8.21-14.44l110.6-66.29v14.11l-110.6-65.64q-8.2-4.92-8.21-14.77,0-9.51,8.21-14t17.06.17l121.11,72.86q8.85,6.22,8.86,14.77,0,9.51-8.86,15.09Zm252.71,27.9q-26.58,0-46.93-11.65a84.44,84.44,0,0,1-32-32.17q-11.65-20.5-11.65-47.09,0-26.91,11.65-47.42a84.44,84.44,0,0,1,32-32.17q20.34-11.64,46.93-11.65,26.25,0,46.6,11.65a84.46,84.46,0,0,1,32,32.17q11.64,20.5,11.64,47.42,0,26.58-11.48,47.09A83.27,83.27,0,0,1,612,399.56Q591.64,411.22,565.05,411.21Zm0-29.54q17.07,0,30.2-7.87a55.29,55.29,0,0,0,20.51-21.67q7.38-13.78,7.38-31.83t-7.38-32a54.9,54.9,0,0,0-20.51-21.82q-13.14-7.89-30.2-7.88t-30.19,7.88a55.94,55.94,0,0,0-20.68,21.82q-7.54,13.95-7.55,32t7.55,31.83a56.35,56.35,0,0,0,20.68,21.67Q548,381.68,565.05,381.67Zm113.23,61.7a16,16,0,0,1-12-4.92,16.41,16.41,0,0,1-4.76-11.82,16.27,16.27,0,0,1,16.74-16.73H832.2a16.71,16.71,0,0,1,11.49,28.55,15.76,15.76,0,0,1-11.49,4.92ZM940.5,411.21q-26.58,0-46.93-11.65a84.44,84.44,0,0,1-32-32.17q-11.66-20.5-11.65-47.09,0-26.91,11.65-47.42a84.44,84.44,0,0,1,32-32.17q20.35-11.64,46.93-11.65,26.26,0,46.61,11.65a84.51,84.51,0,0,1,32,32.17q11.64,20.5,11.65,47.42,0,26.58-11.49,47.09a83.32,83.32,0,0,1-31.83,32.17Q967.09,411.22,940.5,411.21Zm0-29.54q17.07,0,30.2-7.87a55.22,55.22,0,0,0,20.51-21.67q7.38-13.78,7.39-31.83t-7.39-32a54.83,54.83,0,0,0-20.51-21.82q-13.12-7.89-30.2-7.88t-30.19,7.88a55.94,55.94,0,0,0-20.68,21.82q-7.54,13.95-7.55,32t7.55,31.83a56.35,56.35,0,0,0,20.68,21.67Q923.44,381.68,940.5,381.67Zm253,1.64-121.11-72.53q-8.87-5.58-8.86-15.09,0-8.54,8.86-14.77l121.11-72.86q8.85-4.59,17.06-.17t8.21,14q0,9.84-8.21,14.77L1100,302.25V288.14l110.6,66.29q8.2,5.25,8.21,14.44a15.57,15.57,0,0,1-4.11,11,18,18,0,0,1-10,5.57A15,15,0,0,1,1193.54,383.31Z"/><path class="cls-7" d="M312.34,97.6a15,15,0,0,1-11.16,2.13,18,18,0,0,1-10-5.58,15.56,15.56,0,0,1-4.1-11q0-9.18,8.21-14.44l110.6-66.3V16.53L295.28-49.1q-8.2-4.93-8.21-14.77,0-9.52,8.21-13.95t17.06.16L433.45-4.8Q442.3,1.44,442.31,10q0,9.52-8.86,15.1Zm252.71,27.9q-26.58,0-46.93-11.65a84.44,84.44,0,0,1-32-32.17q-11.65-20.51-11.65-47.1,0-26.89,11.65-47.42a84.41,84.41,0,0,1,32-32.16q20.34-11.65,46.93-11.65,26.25,0,46.6,11.65a84.44,84.44,0,0,1,32,32.16Q655.3,7.68,655.3,34.58q0,26.6-11.48,47.1A83.27,83.27,0,0,1,612,113.85Q591.64,125.49,565.05,125.5Zm0-29.54q17.07,0,30.2-7.88a55.19,55.19,0,0,0,20.51-21.66q7.38-13.79,7.38-31.84t-7.38-32a54.92,54.92,0,0,0-20.51-21.83q-13.14-7.87-30.2-7.88t-30.19,7.88A56,56,0,0,0,514.18,2.59q-7.54,14-7.55,32t7.55,31.84a56.25,56.25,0,0,0,20.68,21.66Q548,96,565.05,96Zm113.23,61.7a15.94,15.94,0,0,1-12-4.93,16.66,16.66,0,0,1,12-28.55H832.2a16.71,16.71,0,0,1,11.49,28.55,15.73,15.73,0,0,1-11.49,4.93ZM940.5,125.5q-26.58,0-46.93-11.65a84.44,84.44,0,0,1-32-32.17q-11.66-20.51-11.65-47.1,0-26.89,11.65-47.42a84.41,84.41,0,0,1,32-32.16q20.35-11.65,46.93-11.65,26.26,0,46.61,11.65a84.48,84.48,0,0,1,32,32.16q11.64,20.52,11.65,47.42,0,26.6-11.49,47.1a83.32,83.32,0,0,1-31.83,32.17Q967.09,125.49,940.5,125.5Zm0-29.54q17.07,0,30.2-7.88a55.12,55.12,0,0,0,20.51-21.66q7.38-13.79,7.39-31.84t-7.39-32A54.86,54.86,0,0,0,970.7-19.24q-13.12-7.87-30.2-7.88t-30.19,7.88A56,56,0,0,0,889.63,2.59q-7.54,14-7.55,32t7.55,31.84a56.25,56.25,0,0,0,20.68,21.66Q923.44,96,940.5,96Zm253,1.64L1072.43,25.07q-8.87-5.58-8.86-15.1,0-8.53,8.86-14.77l121.11-72.86q8.85-4.59,17.06-.16t8.21,13.95q0,9.84-8.21,14.77L1100,16.53V2.42l110.6,66.3q8.2,5.25,8.21,14.44a15.53,15.53,0,0,1-4.11,11,18,18,0,0,1-10,5.58A15,15,0,0,1,1193.54,97.6Z"/></svg>