<svg id="Layer_1" data-name="Layer 1" xmlns="http://www.w3.org/2000/svg" viewBox="0 0 580.53 450.4"><defs><style>.cls-1{fill:#fff;}</style></defs><path d="M901.7,456.8a70.6,70.6,0,1,0,70.6-70.6A70.65,70.65,0,0,0,901.7,456.8Z" transform="translate(-669.87 -232)"/><path d="M1169.8,682.4l.5-86.3c-43.2,15.8-85.2,26-127.5,31,39.4,43.8,100.9,53.3,127,55.3Z" transform="translate(-669.87 -232)"/><path d="M1170.4,232c-26.6,1.4-88.1,10.7-127.6,54.6,42.4,5,84.4,15.2,127.6,31.1Z" transform="translate(-669.87 -232)"/><path d="M673.1,446.4a18.38,18.38,0,0,0,0,20.8c17.5,24.8,42.9,45,81.7,64.5V381.8C716.1,401.5,690.6,421.7,673.1,446.4Z" transform="translate(-669.87 -232)"/><path d="M1176.3,339.9c-51-19.9-100-31.7-149.8-36.2C954.1,297.1,875.8,330,793,364.9c-6.5,2.7-13,5.5-19.6,8.2V540.5c6.6,2.8,13.1,5.5,19.6,8.2,82.8,34.9,161.1,67.8,233.5,61.2,49.8-4.5,98.8-16.3,149.8-36.2a18.69,18.69,0,0,0,11.7-17.5V357.5a18.73,18.73,0,0,0-11.7-17.6Z" transform="translate(-669.87 -232)"/><path d="M1250.4,428.2V386.7a6.74,6.74,0,0,0-6.8-6.8h-36.7V533.8h36.7a6.74,6.74,0,0,0,6.8-6.8V428.2Z" transform="translate(-669.87 -232)"/><path class="cls-1" d="M939,360.2,885.4,454a5.6,5.6,0,0,0,0,5.6L939,553.4a5.75,5.75,0,0,0,4.9,2.8h94.6a5.75,5.75,0,0,0,4.9-2.8l53.6-93.8a5.95,5.95,0,0,0,0-5.6l-53.6-93.8a5.75,5.75,0,0,0-4.9-2.8H943.9a5.63,5.63,0,0,0-4.9,2.8Zm143.4,102.2L1035.2,545H953.5l47.2-82.6ZM991,456.8l-47.2,82.5-47.2-82.5,47.2-82.5Zm44.1-88.2,47.2,82.6h-81.7l-47.2-82.6Z" transform="translate(-669.87 -232)"/></svg>