<?xml version="1.0" encoding="utf-8"?>
<!-- Generator: Adobe Illustrator 25.0.1, SVG Export Plug-In . SVG Version: 6.00 Build 0)  -->
<svg version="1.1" id="Layer_1" xmlns="http://www.w3.org/2000/svg" xmlns:xlink="http://www.w3.org/1999/xlink" x="0px" y="0px"
	 viewBox="0 0 1200 1200" style="enable-background:new 0 0 1200 1200;" xml:space="preserve">
<path d="M374.4,725.8l86.3,0.5c-15.8-43.2-26-85.2-31-127.5C385.9,638.2,376.4,699.7,374.4,725.8L374.4,725.8z"/>
<path d="M824.8,726.4c-1.4-26.6-10.7-88.1-54.6-127.6c-5,42.4-15.2,84.4-31.1,127.6H824.8z"/>
<path d="M610.4,229.1c-6-4.3-14.7-4.3-20.8,0c-24.8,17.5-45,42.9-64.5,81.7H675C655.3,272.1,635.1,246.6,610.4,229.1z"/>
<path d="M925.8,895.4h-1.3c-11.9,0-23.2,3.9-32.8,11.2c-2.5,1.9-5.9,2.5-8.9,1.4s-5.2-3.6-6-6.7c-3.3-14.1-12-26.3-24.3-34.6
	c-19-12.8-45.7-12.8-64.8,0c-16.4,10.9-26.2,29.1-26.2,48.8c0,1.6,0.1,3.1,0.2,4.7c0.3,3.8-1.7,7.3-5.1,9c-3.3,1.7-7.4,1.3-10.3-1.1
	c-7-5.9-15.9-9-25-9c-12,0-23.1,5.2-30.6,14.4c-2.2,2.7-5.8,3.9-9.2,3.2c-3.4-0.8-6.2-3.3-7.1-6.7c-4.8-17.8-18-32.4-35.3-39.1
	c-12-4.6-20.1-16.6-20.1-29.8v-36h-38.5v36c0,13.2-8.1,25.2-20.1,29.8c-17.2,6.6-30.5,21.2-35.4,39c-0.9,3.4-3.7,6-7.1,6.7
	c-3.4,0.8-6.9-0.5-9.2-3.2c-7.5-9.1-18.7-14.3-30.5-14.3c-9.2,0-18,3.2-25,8.9c-2.9,2.4-6.9,2.9-10.3,1.1s-5.3-5.3-5.1-9
	c0.1-1.5,0.2-3.1,0.2-4.6c0-19.7-9.8-37.9-26.2-48.8c-19.2-12.9-46.1-12.7-64.7,0c-12.5,8.2-21.2,20.5-24.5,34.6
	c-0.8,3.1-3,5.6-6,6.7s-6.3,0.5-8.9-1.5c-9.4-7.4-20.7-11.2-32.6-11.2h-1c-29,0.6-52.6,25.8-52.6,56.4V974H978v-21.8
	C978.2,921.6,954.7,896.1,925.8,895.4L925.8,895.4z"/>
<path d="M628.6,806.4h41.5c3.8,0,6.8-3,6.8-6.8v-36.7H523v36.7c0,3.8,3,6.8,6.8,6.8h41.5H628.6z"/>
<g>
	<polygon points="605.6,638.3 688.2,591.1 688.2,509.4 605.6,556.6 	"/>
	<polygon points="511.8,591.2 594.4,638.4 594.4,556.7 511.8,509.5 	"/>
	<polygon points="600,452.6 517.5,499.8 600,547 682.5,499.8 	"/>
	<path d="M691.9,349c-2.7-6.5-5.5-13-8.2-19.6H516.3c-2.8,6.6-5.5,13.1-8.2,19.6c-34.9,82.8-67.8,161.1-61.2,233.5
		c4.5,49.8,16.3,98.8,36.2,149.8c2.7,7,9.7,11.7,17.5,11.7h198.7c7.7,0.1,14.8-4.6,17.6-11.7c19.9-51,31.7-100,36.2-149.8
		C759.7,510.1,726.8,431.8,691.9,349z M699.4,594.5c0,2-1.1,3.9-2.8,4.9L602.8,653c-0.9,0.5-1.8,0.7-2.8,0.7s-1.9-0.2-2.8-0.7
		l-93.8-53.6c-1.7-1-2.8-2.9-2.8-4.9v-94.6c0-2,1.1-3.9,2.8-4.9l93.8-53.6c1.8-1,3.9-1,5.6,0l93.8,53.6c1.7,1,2.8,2.8,2.8,4.9V594.5
		z"/>
</g>
</svg>
