<?xml version="1.0" encoding="utf-8"?>
<!-- Generator: Adobe Illustrator 25.0.1, SVG Export Plug-In . SVG Version: 6.00 Build 0)  -->
<svg version="1.1" id="Layer_1" xmlns="http://www.w3.org/2000/svg" xmlns:xlink="http://www.w3.org/1999/xlink" x="0px" y="0px"
	 viewBox="0 0 1200 1200" style="enable-background:new 0 0 1200 1200;" xml:space="preserve">
<path d="M1116.7,320.9l-502-286.9c-9.2-5.3-20.6-5.2-29.8,0L83.2,320.9c-9.3,5.3-15.1,15.3-15.1,26v506c0,10.8,5.8,20.7,15.1,26
	L585,1166c4.6,2.6,9.8,4,14.9,4c5.1,0,10.3-1.3,14.9-4l502-287c9.3-5.3,15.1-15.3,15.1-26v-506
	C1131.8,336.2,1126.1,326.2,1116.7,320.9L1116.7,320.9z M569.9,1088.3L128.1,835.6v-437l441.7,252.7V1088.3z M599.9,599.3
	L158.6,346.9L599.9,94.6l441.5,252.3L599.9,599.3z M1071.8,835.6l-442,252.7v-437l442-252.7V835.6z"/>
</svg>
